<svg xmlns="http://www.w3.org/2000/svg" xmlns:xlink="http://www.w3.org/1999/xlink" version="1.1" width="256" height="256" viewBox="0 0 256 256" xml:space="preserve">

<defs>
</defs>
<g style="stroke: none; stroke-width: 0; stroke-dasharray: none; stroke-linecap: butt; stroke-linejoin: miter; stroke-miterlimit: 10; fill: none; fill-rule: nonzero; opacity: 1;" transform="translate(1.4065934065934016 1.4065934065934016) scale(2.81 2.81)" >
	<path d="M 45 0 C 28.967 0 14.902 8.392 6.932 21.015 c 2.729 1.97 6.069 3.145 9.693 3.145 h 32.399 c 17.08 0 32.123 8.704 40.948 21.915 C 89.981 45.716 90 45.36 90 45 C 90 20.147 69.853 0 45 0 z" style="stroke: none; stroke-width: 1; stroke-dasharray: none; stroke-linecap: butt; stroke-linejoin: miter; stroke-miterlimit: 10; fill: #e22076; fill-rule: nonzero; opacity: 1;" transform=" matrix(1 0 0 1 0 0) " stroke-linecap="round" />
	<path d="M 90 45 c 0 -1.207 -0.062 -2.399 -0.155 -3.583 C 81.002 27.735 66.02 20.885 49.024 20.885 H 16.625 c -3.159 0 -6.101 -0.494 -8.614 -1.504 C 3.387 26.046 0.51 34.014 0.063 42.629 c 9.023 11.127 22.794 18.247 38.236 18.247 h 0.744 c 9.038 0 13.101 3.942 13.329 12.925 c 0.004 -0.143 0.022 -0.282 0.022 -0.426 c 0 8.417 -3.516 15.355 -11.172 16.456 C 42.469 89.934 43.726 90 45 90 C 69.853 90 90 69.853 90 45 z" style="stroke: none; stroke-width: 1; stroke-dasharray: none; stroke-linecap: butt; stroke-linejoin: miter; stroke-miterlimit: 10; fill: #e22076; fill-rule: nonzero; opacity: 1;" transform=" matrix(1 0 0 1 0 0) " stroke-linecap="round" />
	<path d="M 41.27 89.834 c 7.988 -1.072 14.169 -7.802 14.378 -16.034 c -0.228 -8.983 -7.566 -16.2 -16.604 -16.2 h -0.744 c -15.296 0 -28.947 -6.992 -37.973 -17.938 C 0.119 41.414 0 43.193 0 45 C 0 68.595 18.164 87.936 41.27 89.834 z" style="stroke: none; stroke-width: 1; stroke-dasharray: none; stroke-linecap: butt; stroke-linejoin: miter; stroke-miterlimit: 10; fill: #e22076; fill-rule: nonzero; opacity: 1;" transform=" matrix(1 0 0 1 0 0) " stroke-linecap="round" />
	<path d="M 36.371 52.976 l 19.271 14.237 c 2.2 1.214 3.786 0.586 4.334 -2.041 l 7.844 -36.964 c 0.803 -3.22 -1.227 -4.681 -3.331 -3.726 L 18.428 42.242 c -3.144 1.261 -3.125 3.016 -0.573 3.797 l 11.821 3.689 L 57.04 32.464 c 1.292 -0.783 2.478 -0.362 1.505 0.502 L 36.371 52.976 z" style="stroke: none; stroke-width: 1; stroke-dasharray: none; stroke-linecap: butt; stroke-linejoin: miter; stroke-miterlimit: 10; fill: #150322; fill-rule: nonzero; opacity: 1;" transform=" matrix(1 0 0 1 0 0) " stroke-linecap="round" />
</g>
</svg>